<svg width="180" height="73" viewBox="0 0 180 73" fill="none" xmlns="http://www.w3.org/2000/svg">
<g id="Group 1">
<path id="Vector" d="M1.0049 41.2362C0.666355 41.2368 0.328964 41.1967 0 41.1168L0.119435 39.8812C0.435253 39.9733 0.762439 40.0204 1.09138 40.0213C1.27045 40.035 1.45033 40.0085 1.61781 39.9437C1.78529 39.8788 1.93612 39.7773 2.05921 39.6465C2.31231 39.2684 2.42722 38.8145 2.38457 38.3615V32.6328H3.96193V36.9778H5.19746V38.2133H3.96193V38.2627C3.96685 38.637 3.92535 39.0105 3.83837 39.3747C3.74934 39.7071 3.60149 40.021 3.40182 40.3013C3.16647 40.6114 2.84802 40.8485 2.48341 40.985C2.01096 41.1617 1.50921 41.247 1.0049 41.2362Z" fill="white"/>
<path id="Vector_2" d="M5.01636 38.2092V36.9736H6.46604V38.2092H5.01636Z" fill="white"/>
<path id="Vector_3" d="M6.28467 38.2092V36.9736H7.73435V38.2092H6.28467Z" fill="white"/>
<path id="Vector_4" d="M15.0239 38.2093H7.55312C7.38344 38.1997 7.22088 38.1378 7.08773 38.0322C7.01173 37.9875 6.94872 37.9236 6.90494 37.8471C6.86116 37.7705 6.83813 37.6838 6.83813 37.5956C6.83813 37.5074 6.86116 37.4208 6.90494 37.3442C6.94872 37.2676 7.01173 37.2038 7.08773 37.1591C7.21936 37.0503 7.38255 36.9867 7.55312 36.9779H8.27384L9.01516 37.0355C8.81763 36.8206 8.66579 36.5677 8.56881 36.2924C8.47182 36.017 8.43172 35.7248 8.45093 35.4335C8.43812 35.0395 8.50728 34.6472 8.65403 34.2814C8.80078 33.9156 9.02193 33.5842 9.30345 33.3084C9.59614 33.0307 9.94164 32.8147 10.3194 32.6732C10.6972 32.5317 11.0996 32.4676 11.5027 32.4847C12.2531 32.438 12.992 32.6863 13.5619 33.1766C13.8198 33.4505 14.018 33.7749 14.1442 34.1294C14.2704 34.4838 14.3217 34.8605 14.295 35.2358C14.2968 35.5854 14.2368 35.9325 14.1179 36.2613C14.0194 36.5588 13.8414 36.8237 13.6031 37.0273C13.9091 36.9893 14.2172 36.9701 14.5256 36.9696H15.0404L15.0239 38.2093ZM11.3585 36.9738C11.5395 36.9799 11.7197 36.9463 11.8862 36.8751C12.0528 36.8039 12.2016 36.697 12.3223 36.5619C12.5997 36.2125 12.735 35.7713 12.7012 35.3264C12.7012 34.2515 12.2646 33.712 11.3833 33.712C11.2047 33.7103 11.0278 33.746 10.8639 33.817C10.7 33.8879 10.5529 33.9924 10.4319 34.1238C10.1523 34.4531 10.0133 34.8791 10.0448 35.3099C10.0448 36.4178 10.4854 36.9779 11.3585 36.9779V36.9738ZM10.819 31.6198C10.7075 31.5045 10.6321 31.3591 10.602 31.2016C10.572 31.044 10.5886 30.8811 10.6498 30.7328C10.711 30.5845 10.8142 30.4574 10.9467 30.3669C11.0792 30.2765 11.2352 30.2267 11.3956 30.2237C11.5038 30.2227 11.6111 30.2438 11.7109 30.2856C11.8107 30.3273 11.901 30.3889 11.9763 30.4666C12.0546 30.5409 12.1169 30.6303 12.1595 30.7295C12.2021 30.8286 12.224 30.9353 12.224 31.0432C12.224 31.1511 12.2021 31.2579 12.1595 31.357C12.1169 31.4561 12.0546 31.5455 11.9763 31.6198C11.901 31.6975 11.8107 31.7591 11.7109 31.8009C11.6111 31.8427 11.5038 31.8637 11.3956 31.8628C11.288 31.8636 11.1814 31.8425 11.0823 31.8008C10.9831 31.759 10.8936 31.6974 10.819 31.6198Z" fill="white"/>
<path id="Vector_5" d="M14.8428 38.2092V36.9736H16.2925V38.2092H14.8428Z" fill="white"/>
<path id="Vector_6" d="M16.1113 38.2092V36.9736H17.561V38.2092H16.1113Z" fill="white"/>
<path id="Vector_7" d="M25.0401 38.2091C24.5399 38.2287 24.0397 38.1703 23.5575 38.0361C23.3955 37.9831 23.2456 37.8987 23.1163 37.7878C22.987 37.6768 22.8808 37.5415 22.8038 37.3895C22.6606 37.6756 22.4277 37.907 22.1407 38.0485C21.7868 38.2289 21.3929 38.3168 20.9958 38.3038C20.6395 38.3127 20.2872 38.2275 19.9744 38.0567C19.7013 37.9114 19.4926 37.6689 19.3896 37.3772C19.1549 37.9332 18.6236 38.2008 17.7999 38.2008H17.388C17.2169 38.1921 17.0528 38.1302 16.9185 38.0238C16.8425 37.979 16.7795 37.9152 16.7358 37.8386C16.692 37.7621 16.6689 37.6754 16.6689 37.5872C16.6689 37.499 16.692 37.4123 16.7358 37.3358C16.7795 37.2592 16.8425 37.1954 16.9185 37.1506C17.0523 37.0427 17.2165 36.9794 17.388 36.9694H17.7999C17.9516 36.9838 18.1046 36.9634 18.2473 36.9099C18.39 36.8564 18.5187 36.7711 18.6236 36.6606C18.8147 36.3036 18.8964 35.8982 18.8583 35.495V33.337H20.4398V35.5321C20.4149 35.9359 20.4709 36.3405 20.6045 36.7223C20.6671 36.84 20.7642 36.9358 20.8826 36.9969C21.0011 37.058 21.1354 37.0814 21.2676 37.0642C21.4086 37.0739 21.5497 37.0471 21.6774 36.9866C21.805 36.926 21.9149 36.8336 21.9966 36.7182C22.1864 36.3577 22.2693 35.9505 22.2354 35.5445V32.8634H23.7551V35.841C23.7322 36.0046 23.747 36.1714 23.7984 36.3284C23.8498 36.4854 23.9364 36.6286 24.0517 36.747C24.3977 36.9307 24.7903 37.008 25.1801 36.9694H25.5055C25.5508 36.4917 25.5755 36.0181 25.5755 35.5445C25.578 34.4751 25.462 33.4088 25.2295 32.365L26.7739 32.1509C27.0311 33.2302 27.1596 34.3361 27.157 35.4456C27.157 35.9947 27.1405 36.5054 27.1075 36.9777H28.3184V38.2132L25.0401 38.2091Z" fill="white"/>
<path id="Vector_8" d="M28.166 38.2092V36.9736H29.6239V38.2092H28.166Z" fill="white"/>
<path id="Vector_9" d="M32.4244 38.2093H29.4344C29.2633 38.2005 29.0992 38.1386 28.9649 38.0322C28.8899 37.9866 28.8279 37.9225 28.7849 37.8461C28.7418 37.7696 28.7192 37.6834 28.7192 37.5956C28.7192 37.5079 28.7418 37.4216 28.7849 37.3451C28.8279 37.2687 28.8899 37.2046 28.9649 37.1591C29.0987 37.0512 29.2629 36.9878 29.4344 36.9778H30.8594V29.8447H32.4368L32.4244 38.2093Z" fill="white"/>
<path id="Vector_10" d="M34.22 38.2093V29.8447H35.8014V38.2093H34.22Z" fill="white"/>
<path id="Vector_11" d="M39.191 41.1994C38.9164 41.1994 38.6323 41.187 38.3385 41.1623C38.1023 41.1488 37.8671 41.1213 37.6342 41.0799L37.3706 41.047L37.4654 39.762C38.078 39.8976 38.7035 39.9666 39.331 39.9679C40.7038 39.9679 41.3902 39.4408 41.3902 38.3865V38.2094H40.443C38.3096 38.2094 37.2443 37.2923 37.2471 35.4583C37.227 34.6742 37.5136 33.9132 38.0461 33.3373C38.3571 33.0366 38.728 32.8049 39.1346 32.6573C39.5413 32.5097 39.9745 32.4495 40.4059 32.4806C40.8293 32.4806 41.252 32.5137 41.6703 32.5795C41.9884 32.6244 42.3024 32.6947 42.6093 32.7895L42.9182 32.8966V38.2506C42.9317 38.6531 42.8564 39.0536 42.6977 39.4237C42.539 39.7939 42.3007 40.1245 41.9998 40.3921C41.3957 40.9303 40.4595 41.1994 39.191 41.1994ZM41.4067 36.978V33.9262C41.0463 33.7736 40.6571 33.7006 40.2659 33.7121C40.07 33.7032 39.8745 33.7385 39.6942 33.8155C39.5138 33.8925 39.353 34.0092 39.2239 34.1568C38.9604 34.4835 38.8243 34.8947 38.8409 35.3141C38.8409 36.422 39.4422 36.9615 40.6366 36.9615L41.4067 36.978Z" fill="white"/>
<path id="Vector_12" d="M53.2761 38.2092H49.5695C47.4416 38.2092 46.3763 37.2922 46.3736 35.4581C46.3588 34.6703 46.6547 33.9084 47.1973 33.3371C47.5073 33.0363 47.8775 32.8045 48.2835 32.6569C48.6895 32.5093 49.1221 32.4491 49.553 32.4805C49.9764 32.4805 50.3991 32.5135 50.8174 32.5793C51.1355 32.6238 51.4496 32.694 51.7564 32.7894L52.0694 32.8964V36.9778H53.3049L53.2761 38.2092ZM47.6503 31.0555C47.6535 30.8508 47.7368 30.6556 47.8823 30.5116C48.0278 30.3676 48.224 30.2864 48.4287 30.2854C48.5306 30.283 48.6319 30.3011 48.7267 30.3386C48.8215 30.3761 48.9078 30.4322 48.9805 30.5036C49.1239 30.6499 49.2042 30.8466 49.2042 31.0514C49.2042 31.2562 49.1239 31.4529 48.9805 31.5991C48.8724 31.7095 48.7338 31.7852 48.5825 31.8166C48.4312 31.8479 48.274 31.8335 48.1309 31.7752C47.9878 31.7169 47.8652 31.6174 47.7789 31.4892C47.6926 31.361 47.6464 31.21 47.6462 31.0555H47.6503ZM50.5126 36.9778V33.9261C50.1521 33.7735 49.763 33.7004 49.3718 33.7119C49.1765 33.703 48.9817 33.7384 48.8019 33.8155C48.6222 33.8925 48.4622 34.0091 48.3339 34.1567C48.0687 34.4824 47.9324 34.8943 47.9509 35.314C47.9509 36.4122 48.5495 36.9613 49.7466 36.9613L50.5126 36.9778ZM49.5654 31.0555C49.5685 30.9562 49.5912 30.8586 49.6322 30.7681C49.6732 30.6776 49.7316 30.5961 49.8042 30.5284C49.8751 30.4537 49.9608 30.3946 50.0559 30.3549C50.1509 30.3152 50.2531 30.2957 50.3561 30.2977C50.4573 30.2971 50.5576 30.3168 50.6509 30.3557C50.7443 30.3946 50.829 30.4519 50.8997 30.5242C50.9751 30.5931 51.035 30.6771 51.0755 30.7708C51.116 30.8645 51.1361 30.9658 51.1345 31.0679C51.1346 31.1684 51.1146 31.2678 51.0757 31.3605C51.0368 31.4532 50.9798 31.5371 50.908 31.6074C50.837 31.682 50.7513 31.7411 50.6563 31.7808C50.5613 31.8205 50.4591 31.84 50.3561 31.838C50.2535 31.8398 50.1517 31.8206 50.0568 31.7817C49.9619 31.7427 49.876 31.6848 49.8042 31.6115C49.7275 31.5408 49.6666 31.4548 49.6255 31.359C49.5843 31.2632 49.5638 31.1598 49.5654 31.0555Z" fill="white"/>
<path id="Vector_13" d="M53.0989 38.2092V36.9736H54.5444V38.2092H53.0989Z" fill="white"/>
<path id="Vector_14" d="M54.3674 38.2092V36.9736H55.813V38.2092H54.3674Z" fill="white"/>
<path id="Vector_15" d="M55.636 38.2092V36.9736H57.0857V38.2092H55.636Z" fill="white"/>
<path id="Vector_16" d="M56.9043 38.2092V36.9736H58.354V38.2092H56.9043Z" fill="white"/>
<path id="Vector_17" d="M63.7738 38.2093H58.1728C58.0031 38.1997 57.8405 38.1379 57.7074 38.0322C57.6314 37.9875 57.5683 37.9237 57.5246 37.8471C57.4808 37.7705 57.4578 37.6839 57.4578 37.5957C57.4578 37.5075 57.4808 37.4208 57.5246 37.3442C57.5683 37.2677 57.6314 37.2039 57.7074 37.1591C57.839 37.0503 58.0022 36.9867 58.1728 36.9779H62.353C62.3895 36.6786 62.4088 36.3775 62.4106 36.076C62.4618 35.4538 62.2683 34.8361 61.8711 34.3545C61.5128 33.9838 60.9115 33.7985 60.0755 33.7985C59.6256 33.8008 59.1766 33.8393 58.7329 33.9138V32.6783C59.2233 32.5882 59.721 32.5441 60.2196 32.5465C61.5375 32.5465 62.4985 32.8307 63.1025 33.399C63.6956 33.9673 63.9962 34.8363 63.9962 35.9977C63.9838 36.7398 63.9094 37.4796 63.7738 38.2093Z" fill="white"/>
<path id="Vector_18" d="M65.5078 38.2093V29.8447H67.1016V36.9778H68.3372V38.2134L65.5078 38.2093Z" fill="white"/>
<path id="Vector_19" d="M68.1436 38.2092V36.9736H69.5932V38.2092H68.1436Z" fill="white"/>
<path id="Vector_20" d="M69.4121 38.2092V36.9736H70.8618V38.2092H69.4121Z" fill="white"/>
<path id="Vector_21" d="M70.6804 38.2092V36.9736H72.1301V38.2092H70.6804Z" fill="white"/>
<path id="Vector_22" d="M71.9489 38.2092C71.7792 38.1996 71.6166 38.1377 71.4835 38.0321C71.4075 37.9873 71.3445 37.9235 71.3007 37.847C71.2569 37.7704 71.2339 37.6837 71.2339 37.5955C71.2339 37.5073 71.2569 37.4206 71.3007 37.3441C71.3445 37.2675 71.4075 37.2037 71.4835 37.159C71.6151 37.0501 71.7783 36.9866 71.9489 36.9778H73.3615V32.6328H74.9265V36.9778H76.162V38.2133L71.9489 38.2092ZM72.6325 40.3919C72.5585 40.3223 72.4998 40.2379 72.4601 40.1444C72.4203 40.0508 72.4005 39.95 72.4019 39.8483C72.4007 39.7461 72.4206 39.6447 72.4603 39.5504C72.4999 39.4562 72.5586 39.3712 72.6325 39.3005C72.7048 39.2282 72.7909 39.1711 72.8857 39.1329C72.9806 39.0947 73.0822 39.0761 73.1844 39.0781C73.2852 39.0776 73.3851 39.097 73.4784 39.1352C73.5717 39.1733 73.6565 39.2295 73.728 39.3005C73.8026 39.3707 73.8616 39.4557 73.9014 39.55C73.9411 39.6443 73.9606 39.746 73.9587 39.8483C73.9568 40.0011 73.91 40.15 73.8241 40.2764C73.7382 40.4029 73.617 40.5012 73.4756 40.5592C73.3342 40.6171 73.1788 40.6322 73.0289 40.6025C72.879 40.5727 72.7411 40.4995 72.6325 40.3919ZM74.5476 40.3919C74.4741 40.3221 74.416 40.2376 74.377 40.144C74.338 40.0504 74.319 39.9497 74.3211 39.8483C74.3191 39.7463 74.3382 39.645 74.3772 39.5508C74.4162 39.4565 74.4742 39.3714 74.5476 39.3005C74.6198 39.2282 74.7059 39.1711 74.8008 39.1329C74.8956 39.0947 74.9972 39.0761 75.0995 39.0781C75.2003 39.0776 75.3002 39.097 75.3935 39.1352C75.4867 39.1733 75.5716 39.2295 75.6431 39.3005C75.7177 39.3707 75.7767 39.4557 75.8164 39.55C75.8561 39.6443 75.8757 39.746 75.8737 39.8483C75.8719 40.0011 75.8251 40.15 75.7392 40.2764C75.6533 40.4029 75.5321 40.5012 75.3906 40.5592C75.2492 40.6171 75.0939 40.6322 74.944 40.6025C74.794 40.5727 74.6562 40.4995 74.5476 40.3919Z" fill="white"/>
<path id="Vector_23" d="M75.9973 38.2092V36.9736H77.4429V38.2092H75.9973Z" fill="white"/>
<path id="Vector_24" d="M77.2659 38.2092V36.9736H78.7114V38.2092H77.2659Z" fill="white"/>
<path id="Vector_25" d="M78.5303 38.2092V36.9736H79.98V38.2092H78.5303Z" fill="white"/>
<path id="Vector_26" d="M87.459 38.2091C86.9588 38.2287 86.4586 38.1703 85.9764 38.0361C85.8145 37.9831 85.6646 37.8987 85.5352 37.7878C85.4059 37.6768 85.2997 37.5415 85.2227 37.3895C85.0795 37.6756 84.8467 37.907 84.5597 38.0485C84.2057 38.2289 83.8118 38.3168 83.4147 38.3038C83.0585 38.3127 82.7062 38.2275 82.3934 38.0567C82.1202 37.9114 81.9115 37.6689 81.8085 37.3772C81.5738 37.9332 81.0425 38.2008 80.2188 38.2008H79.807C79.6359 38.1921 79.4718 38.1302 79.3375 38.0238C79.2615 37.979 79.1985 37.9152 79.1547 37.8386C79.1109 37.7621 79.0879 37.6754 79.0879 37.5872C79.0879 37.499 79.1109 37.4123 79.1547 37.3358C79.1985 37.2592 79.2615 37.1954 79.3375 37.1506C79.4702 37.041 79.635 36.9774 79.807 36.9694H80.2188C80.3706 36.9838 80.5236 36.9634 80.6663 36.9099C80.809 36.8564 80.9376 36.7711 81.0425 36.6606C81.2337 36.3036 81.3153 35.8982 81.2773 35.495V33.337H82.8587V35.5321C82.8316 35.9359 82.8877 36.341 83.0235 36.7223C83.0861 36.84 83.1831 36.9358 83.3016 36.9969C83.4201 37.058 83.5544 37.0814 83.6865 37.0642C83.8275 37.0739 83.9686 37.0471 84.0963 36.9866C84.224 36.926 84.3339 36.8336 84.4155 36.7182C84.6054 36.3577 84.6882 35.9505 84.6544 35.5445V32.8634H86.1741V35.841C86.1511 36.0046 86.1659 36.1714 86.2173 36.3284C86.2687 36.4854 86.3553 36.6286 86.4706 36.747C86.8167 36.9307 87.2092 37.008 87.5991 36.9694H87.9244C87.9697 36.4917 87.9944 36.0181 87.9944 35.5445C87.997 34.4751 87.881 33.4088 87.6485 32.365L89.1929 32.1509C89.45 33.2302 89.5786 34.3361 89.5759 35.4456C89.5759 35.9947 89.5594 36.5054 89.5265 36.9777H90.7373V38.2132L87.459 38.2091Z" fill="white"/>
<path id="Vector_27" d="M90.5767 38.2092V36.9736H92.0263V38.2092H90.5767Z" fill="white"/>
<path id="Vector_28" d="M91.8532 38.2093C91.6835 38.1996 91.5209 38.1378 91.3878 38.0322C91.3118 37.9874 91.2488 37.9236 91.205 37.847C91.1612 37.7705 91.1382 37.6838 91.1382 37.5956C91.1382 37.5074 91.1612 37.4207 91.205 37.3442C91.2488 37.2676 91.3118 37.2038 91.3878 37.1591C91.5194 37.0502 91.6826 36.9867 91.8532 36.9778H93.2658V29.8447H94.8473V36.9778H96.0828V38.2134L91.8532 38.2093Z" fill="white"/>
<path id="Vector_29" d="M95.9019 38.2092V36.9736H97.3474V38.2092H95.9019Z" fill="white"/>
<path id="Vector_30" d="M100.16 38.2093H97.1661C96.995 38.2005 96.8309 38.1386 96.6966 38.0322C96.6206 37.9874 96.5576 37.9236 96.5138 37.847C96.47 37.7705 96.447 37.6838 96.447 37.5956C96.447 37.5074 96.47 37.4207 96.5138 37.3442C96.5576 37.2676 96.6206 37.2038 96.6966 37.1591C96.8304 37.0512 96.9946 36.9878 97.1661 36.9778H98.5787V29.8447H100.156L100.16 38.2093Z" fill="white"/>
<path id="Vector_31" d="M2.41755 45.4492H3.86723V50.6837C3.86723 52.9118 2.80468 53.6531 1.23968 53.6531C0.820303 53.6572 0.403046 53.5932 0.00415039 53.4637L0.181241 52.2776C0.469264 52.3741 0.771167 52.4228 1.07494 52.4217C1.89863 52.4217 2.40931 52.0387 2.40931 50.6343L2.41755 45.4492Z" fill="white"/>
<path id="Vector_32" d="M8.48802 45.4492V50.1566C8.48802 51.7381 9.13873 52.4711 10.1148 52.4711C11.165 52.4711 11.791 51.7381 11.791 50.1566V45.4492H13.2407V50.0619C13.2407 52.5329 11.9763 53.6531 10.0695 53.6531C8.22855 53.6531 7.03833 52.6112 7.03833 50.0742V45.4492H8.48802Z" fill="white"/>
<path id="Vector_33" d="M16.4902 45.569C17.1904 45.4454 17.9002 45.3847 18.6112 45.3878C19.6738 45.3878 20.3451 45.532 20.8764 45.9026C21.1361 46.0612 21.3491 46.2857 21.4938 46.5534C21.6385 46.8211 21.7097 47.1223 21.7 47.4264C21.6911 47.8179 21.5589 48.1966 21.3223 48.5087C21.0857 48.8207 20.7567 49.0501 20.3821 49.1644V49.1974C20.8366 49.2954 21.2436 49.5464 21.5351 49.9085C21.8267 50.2705 21.9852 50.7217 21.9842 51.1866C21.9891 51.5041 21.9242 51.8189 21.7939 52.1085C21.6637 52.3982 21.4714 52.6557 21.2305 52.8628C20.6663 53.357 19.7314 53.6082 18.2694 53.6082C17.6745 53.6101 17.0802 53.573 16.4902 53.497V45.569ZM17.9276 48.7567H18.673C19.6861 48.7567 20.238 48.2748 20.238 47.5912C20.238 46.8251 19.6738 46.4792 18.7554 46.4792C18.4794 46.4697 18.2032 46.4905 17.9317 46.541L17.9276 48.7567ZM17.9276 52.4633C18.183 52.4941 18.4405 52.5051 18.6977 52.4962C19.6285 52.4962 20.4645 52.1503 20.4645 51.1536C20.4645 50.1569 19.6408 49.8275 18.6483 49.8275H17.9276V52.4633Z" fill="white"/>
<path id="Vector_34" d="M26.4281 51.2356L25.7444 53.5213H24.27L26.8152 45.4492H28.6644L31.2466 53.5213H29.6816L28.9609 51.2356H26.4281ZM28.7056 50.1195L28.0796 48.1303C27.9272 47.6402 27.7954 47.0884 27.6677 46.623H27.643C27.5236 47.0884 27.3959 47.6526 27.2682 48.1303L26.6505 50.1195H28.7056Z" fill="white"/>
<path id="Vector_35" d="M33.9275 45.5687C34.6509 45.443 35.3842 45.3824 36.1185 45.3875C37.2634 45.3875 38.0294 45.5811 38.5896 46.0341C38.8197 46.2399 39.0007 46.4948 39.119 46.7799C39.2373 47.0651 39.29 47.3732 39.2732 47.6815C39.2736 48.1269 39.1338 48.5611 38.8736 48.9226C38.6134 49.284 38.246 49.5544 37.8235 49.6954V49.7283C38.4001 49.9466 38.7419 50.5067 38.9314 51.2851C39.0943 52.0476 39.3019 52.7998 39.5533 53.5379H38.0665C37.8316 52.9215 37.6551 52.2845 37.5394 51.6352C37.3046 50.5808 36.9381 50.2431 36.1103 50.2225H35.3813V53.5379H33.944L33.9275 45.5687ZM35.3648 49.127H36.2132C37.1893 49.127 37.7947 48.5999 37.7947 47.7968C37.7947 46.9237 37.1893 46.5036 36.2462 46.5036C35.9466 46.496 35.6472 46.5195 35.3525 46.5736L35.3648 49.127Z" fill="white"/>
<path id="Vector_36" d="M43.676 45.4492V53.5213H42.2263V45.4492H43.676Z" fill="white"/>
<path id="Vector_37" d="M56.0395 46.6808H53.7744V45.4453H59.775V46.6808H57.4892V53.5215H56.0395V46.6808Z" fill="white"/>
<path id="Vector_38" d="M62.2996 45.5687C63.0244 45.4429 63.759 45.3822 64.4947 45.3875C65.6355 45.3875 66.4015 45.5811 66.9657 46.0341C67.1959 46.2399 67.3768 46.4948 67.4952 46.7799C67.6135 47.0651 67.6662 47.3732 67.6494 47.6815C67.6498 48.1269 67.51 48.5611 67.2498 48.9226C66.9896 49.284 66.6222 49.5544 66.1997 49.6954V49.7283C66.7763 49.9466 67.1181 50.5067 67.3076 51.2851C67.4733 52.0473 67.6823 52.7995 67.9336 53.5379H66.4468C66.2118 52.9213 66.034 52.2844 65.9155 51.6352C65.6808 50.5809 65.3143 50.2432 64.4906 50.2226H63.7575V53.5379H62.3202L62.2996 45.5687ZM63.7369 49.1271H64.5976C65.5778 49.1271 66.1791 48.5999 66.1791 47.7968C66.1791 46.9237 65.5778 46.5036 64.6347 46.5036C64.3338 46.4959 64.0329 46.5194 63.7369 46.5736V49.1271Z" fill="white"/>
<path id="Vector_39" d="M72.2702 51.2356L71.5865 53.5213H70.0916L72.6367 45.4492H74.49L77.0682 53.5213H75.5032L74.7824 51.2356H72.2702ZM74.5477 50.1195L73.9217 48.1303C73.7693 47.6402 73.6416 47.0884 73.5098 46.623H73.4851C73.3698 47.0884 73.238 47.6526 73.1104 48.1303L72.4967 50.1195H74.5477Z" fill="white"/>
<path id="Vector_40" d="M80.9107 53.5217L78.3408 45.4496H79.9223L81.0054 49.1273C81.3102 50.1446 81.5861 51.0795 81.7838 52.0597H81.8085C82.0186 51.1042 82.3151 50.1199 82.6322 49.1397L83.7895 45.4331H85.3339L82.5869 53.5052L80.9107 53.5217Z" fill="white"/>
<path id="Vector_41" d="M92.224 49.9424H89.2299V52.3146H92.5782V53.5213H87.772V45.4492H92.3928V46.6559H89.2217V48.744H92.224V49.9424Z" fill="white"/>
<path id="Vector_42" d="M95.4363 45.4492H96.886V52.2899H100.152V53.5255H95.4363V45.4492Z" fill="white"/>
<path id="Vector_43" d="M16.1525 59.9504H15.5883C15.0117 59.9504 15.0117 59.7403 15.0117 59.6621C15.0117 59.5838 15.057 59.3985 15.3865 59.3985C15.5178 59.4016 15.6487 59.4154 15.7777 59.4397H15.9054L16.0043 58.826H15.8725C15.725 58.8063 15.5765 58.7953 15.4277 58.7931C15.1315 58.7719 14.838 58.8614 14.604 59.0443C14.5143 59.122 14.4425 59.2182 14.3935 59.3263C14.3444 59.4343 14.3193 59.5517 14.3198 59.6703C14.3205 59.771 14.346 59.8701 14.394 59.9586H14.081H13.9739V60.5723H16.1731L16.1525 59.9504Z" fill="white"/>
<path id="Vector_44" d="M20.6088 58.3404C20.5627 58.3853 20.5261 58.4392 20.5013 58.4986C20.4766 58.5581 20.4641 58.6219 20.4646 58.6863C20.4646 58.7505 20.4773 58.814 20.502 58.8732C20.5267 58.9325 20.5628 58.9862 20.6084 59.0314C20.654 59.0766 20.708 59.1123 20.7675 59.1365C20.8269 59.1607 20.8905 59.1728 20.9547 59.1723C21.0194 59.1734 21.0838 59.1617 21.1439 59.1376C21.204 59.1136 21.2587 59.0777 21.3048 59.0323C21.3501 58.9869 21.3859 58.933 21.41 58.8735C21.434 58.8141 21.4459 58.7504 21.4448 58.6863C21.446 58.6206 21.4338 58.5553 21.409 58.4944C21.3843 58.4336 21.3474 58.3783 21.3007 58.3321C21.2053 58.2464 21.0813 58.1997 20.9531 58.2012C20.8249 58.2027 20.702 58.2524 20.6088 58.3404Z" fill="white"/>
<path id="Vector_45" d="M20.0197 63.2536H17.7916V57.8091H16.9968V63.2536H14.9375C14.0727 63.2536 13.4714 63.1013 13.1584 62.8006C12.9854 62.602 12.8542 62.3705 12.7728 62.12C12.6914 61.8695 12.6615 61.6051 12.6848 61.3427C12.6798 60.8517 12.7942 60.3669 13.0184 59.9301L13.1378 59.6994L12.2359 59.8559L12.207 59.9136C11.9892 60.3842 11.8821 60.8984 11.894 61.4168C11.8661 61.7678 11.9158 62.1206 12.0397 62.4501C12.1635 62.7797 12.3585 63.078 12.6106 63.3237C13.0801 63.7355 13.8462 63.9373 14.8511 63.9373H20.8269V59.7695H20.032L20.0197 63.2536Z" fill="white"/>
<path id="Vector_46" d="M19.4842 59.0321C19.5533 59.0963 19.6394 59.1393 19.7323 59.1558C19.8252 59.1723 19.9208 59.1616 20.0078 59.1251C20.0947 59.0886 20.1693 59.0277 20.2225 58.9499C20.2758 58.872 20.3054 58.7804 20.3079 58.6862C20.3098 58.6206 20.2975 58.5554 20.2719 58.495C20.2463 58.4346 20.208 58.3804 20.1596 58.3361C20.0673 58.2455 19.9431 58.1948 19.8137 58.1948C19.6843 58.1948 19.5601 58.2455 19.4677 58.3361C19.4223 58.3805 19.3865 58.4337 19.3624 58.4925C19.3383 58.5513 19.3265 58.6144 19.3277 58.6779C19.3267 58.742 19.3385 58.8057 19.3626 58.8651C19.3866 58.9246 19.4224 58.9786 19.4677 59.0239L19.4842 59.0321Z" fill="white"/>
<path id="Vector_47" d="M22.8778 59.6374L22.7542 59.5962L22.5318 60.2922L22.6554 60.3334C23.3068 60.5054 23.8848 60.884 24.3027 61.4124C24.6382 61.9667 24.8069 62.6058 24.7887 63.2534H21.9429V63.937H25.5794V63.4757C25.6301 62.5984 25.4086 61.7267 24.9452 60.98C24.4162 60.3242 23.692 59.8539 22.8778 59.6374Z" fill="white"/>
<path id="Vector_48" d="M40.0147 59.5018L39.2281 59.6747L39.2734 59.8065C39.4873 60.5548 39.59 61.3305 39.5781 62.1087C39.5753 62.4912 39.5533 62.8733 39.5122 63.2536H39.3187C38.9591 63.29 38.5966 63.2244 38.2726 63.0642C38.112 62.9489 38.0255 62.6524 38.0255 62.2405V59.9342H37.2389V61.911C37.2759 62.2988 37.1925 62.6885 37 63.0271C36.9225 63.1224 36.8234 63.1978 36.711 63.2472C36.5986 63.2966 36.476 63.3186 36.3534 63.3113C36.2519 63.3133 36.1507 63.3008 36.0528 63.2742C35.9885 63.2581 35.9318 63.2202 35.8921 63.1672C35.8497 63.1051 35.8112 63.0404 35.7768 62.9736C35.7433 62.8823 35.7238 62.7865 35.7192 62.6894C35.7192 62.5412 35.7192 62.4258 35.6945 62.3352C35.6698 62.2446 35.6945 62.1046 35.6945 61.8987V60.2513H34.8996V62.154C34.9301 62.4543 34.8622 62.7564 34.706 63.0148C34.6273 63.0973 34.5306 63.1606 34.4235 63.1999C34.3164 63.2391 34.2017 63.2533 34.0883 63.2413H33.4334C33.0096 63.2321 32.5998 63.0878 32.2638 62.8294C32.543 62.6058 32.7813 62.3355 32.9681 62.0305C33.1562 61.7344 33.2601 61.3927 33.2687 61.042C33.2727 60.8589 33.238 60.677 33.1671 60.5081C33.0961 60.3393 32.9904 60.1872 32.8569 60.0619C32.5155 59.7669 32.0714 59.6189 31.6213 59.65C30.8841 59.65 30.0399 60.0166 29.1091 60.7332L29.0679 60.7661L29.0061 61.285L29.105 61.318C29.2481 61.366 29.386 61.4281 29.5168 61.5033C29.661 61.5816 29.7845 61.6557 29.8875 61.7175C30.0142 61.8028 30.1353 61.8964 30.2499 61.9975C30.394 62.117 30.5011 62.2076 30.5629 62.2693L30.9006 62.5906L31.0695 62.7512C30.3525 63.0879 29.5674 63.2542 28.7755 63.2372H27.6347V57.8091H26.8398V63.9373H28.8991C29.8506 63.946 30.7892 63.7166 31.6296 63.2701C32.1014 63.6884 32.7044 63.9287 33.3346 63.9497H34.08C34.2962 63.9702 34.5139 63.9334 34.7112 63.843C34.9086 63.7527 35.0787 63.6119 35.2044 63.4348C35.2772 63.5642 35.3753 63.6776 35.4927 63.7684C35.7188 63.9346 35.9948 64.0189 36.2752 64.0073C36.6114 64.0272 36.9447 63.9344 37.2224 63.7437C37.3583 63.6424 37.4742 63.5167 37.5642 63.3731C37.6923 63.5623 37.8767 63.7064 38.0914 63.7849C38.5288 63.9172 38.9858 63.973 39.4422 63.9497H40.1877V63.8426C40.2893 63.255 40.3403 62.6597 40.34 62.0634C40.3439 61.2413 40.2358 60.4224 40.0188 59.6294L40.0147 59.5018ZM31.5802 60.3254C31.8279 60.3048 32.0738 60.3833 32.2638 60.5437C32.3379 60.6172 32.396 60.7053 32.4343 60.8025C32.4725 60.8996 32.4902 61.0036 32.4862 61.1079C32.4681 61.362 32.3914 61.6083 32.2621 61.8277C32.1327 62.0471 31.9543 62.2335 31.7408 62.3723C31.6666 62.3023 31.5637 62.1993 31.4154 62.0634L31.3866 62.0305L30.8594 61.5692C30.7047 61.4377 30.5424 61.3153 30.3735 61.2027C30.2406 61.1169 30.1031 61.0385 29.9616 60.9679C30.4302 60.6082 30.9917 60.3896 31.5802 60.3378V60.3254Z" fill="white"/>
<path id="Vector_49" d="M49.3059 59.1801C49.4047 59.1812 49.5015 59.1527 49.5839 59.0982C49.6663 59.0437 49.7305 58.9658 49.7682 58.8745C49.8058 58.7831 49.8153 58.6826 49.7953 58.5859C49.7753 58.4891 49.7268 58.4006 49.656 58.3317C49.5612 58.2425 49.436 58.1929 49.3059 58.1929C49.1758 58.1929 49.0506 58.2425 48.9558 58.3317C48.909 58.377 48.8721 58.4315 48.8473 58.4917C48.8224 58.552 48.8103 58.6167 48.8117 58.6818C48.8089 58.7487 48.8207 58.8154 48.8463 58.8773C48.8719 58.9392 48.9107 58.9947 48.9599 59.0401C49.0523 59.1306 49.1766 59.1809 49.3059 59.1801Z" fill="white"/>
<path id="Vector_50" d="M55.1911 58.3403C55.1937 58.2464 55.1763 58.1531 55.1401 58.0665C55.1039 57.9799 55.0497 57.9019 54.9811 57.8378C54.8308 57.7107 54.6383 57.6446 54.4416 57.6525C54.227 57.6468 54.0186 57.7251 53.8609 57.8708C53.7838 57.9393 53.7225 58.0238 53.6812 58.1184C53.64 58.213 53.6198 58.3154 53.622 58.4185C53.6176 58.4802 53.6176 58.5421 53.622 58.6038L53.0166 58.6821V59.2257L54.2974 59.0569C55.0387 58.9704 55.1911 58.6203 55.1911 58.3403ZM54.2686 58.2538C54.2915 58.232 54.3188 58.2152 54.3485 58.2046C54.3783 58.1939 54.41 58.1897 54.4416 58.192C54.4891 58.1891 54.536 58.2037 54.5734 58.2332C54.5867 58.2451 54.5972 58.2597 54.6043 58.276C54.6114 58.2924 54.6149 58.3101 54.6145 58.3279C54.6145 58.402 54.5898 58.4268 54.5651 58.4432C54.4685 58.4906 54.3636 58.5186 54.2562 58.5256H54.2151C54.2125 58.4941 54.2125 58.4624 54.2151 58.4309C54.2118 58.3993 54.2148 58.3673 54.224 58.3369C54.2332 58.3065 54.2483 58.2783 54.2686 58.2538Z" fill="white"/>
<path id="Vector_51" d="M54.9605 59.6827C54.3876 59.6863 53.8356 59.8986 53.4079 60.2799C53.1234 60.5239 52.8885 60.8203 52.716 61.153C52.716 60.8853 52.7366 60.6011 52.7366 60.3005V59.7692H51.9417V63.2575H49.7136V59.7692H48.9188V63.2575H47.4526C46.955 63.2331 46.4809 63.0382 46.11 62.7056C46.4175 62.5306 46.6955 62.3083 46.9337 62.0467C47.1761 61.7719 47.3069 61.4164 47.3002 61.05C47.3045 60.8662 47.27 60.6836 47.1991 60.514C47.1281 60.3444 47.0223 60.1917 46.8884 60.0657C46.5457 59.7731 46.1026 59.6254 45.6529 59.6539C44.9157 59.6539 44.0714 60.0204 43.1365 60.737L43.0953 60.7741L43.0377 61.2848L43.1365 61.3218C43.4006 61.4148 43.6512 61.5422 43.8819 61.7007C44.0849 61.8334 44.2788 61.9792 44.4626 62.1373L44.9115 62.5491L44.7715 62.615L44.059 62.9774C43.9445 63.0376 43.8332 63.1036 43.7254 63.1751L43.4536 63.3687C43.3534 63.4445 43.2622 63.5316 43.1818 63.6281C43.1241 63.7023 43.0665 63.7846 43.0088 63.8752C42.9394 63.9714 42.8903 64.0807 42.8647 64.1965C42.8349 64.3066 42.8197 64.4201 42.8194 64.5342C42.8176 64.7579 42.8725 64.9783 42.9791 65.175C43.0857 65.3716 43.2405 65.538 43.4289 65.6585C43.9591 65.9688 44.5705 66.1123 45.1834 66.0704C45.6776 66.0674 46.1708 66.0234 46.6578 65.9386L46.7731 65.918L46.7237 65.2508L46.3942 65.3085L45.8588 65.362C44.9733 65.4444 44.3473 65.362 43.9931 65.1314C43.8787 65.0707 43.7829 64.98 43.7161 64.869C43.6494 64.7579 43.6141 64.6308 43.6142 64.5013C43.6143 64.4279 43.6283 64.3552 43.6554 64.2871C43.6834 64.216 43.7193 64.1483 43.7625 64.0853C43.8124 64.0129 43.8736 63.9489 43.9437 63.8958C44.0384 63.8217 44.1167 63.7558 44.1867 63.7064C44.2795 63.64 44.3773 63.5808 44.4791 63.5293L44.8003 63.3604C44.8704 63.3234 44.9898 63.2616 45.1586 63.1834L45.4387 63.0516C45.7017 63.2926 45.9936 63.5001 46.3077 63.6693C46.6316 63.8381 46.9927 63.9231 47.3579 63.9164H54.211C54.5533 63.9466 54.8983 63.9067 55.2247 63.799C55.5512 63.6914 55.8522 63.5183 56.1095 63.2904C56.311 63.0749 56.4679 62.8217 56.5711 62.5454C56.6743 62.269 56.7218 61.9749 56.7108 61.6801C56.7443 61.1492 56.5816 60.6246 56.2537 60.2057C56.0919 60.0262 55.8914 59.8858 55.6674 59.7952C55.4433 59.7046 55.2016 59.6661 54.9605 59.6827ZM54.2727 63.2534H52.7407C52.7882 62.8114 52.8948 62.3778 53.0578 61.9643C53.2225 61.5301 53.4813 61.1376 53.8156 60.8153C53.9529 60.6744 54.1168 60.5622 54.2978 60.4851C54.4787 60.4081 54.6732 60.3677 54.8699 60.3663C55.0152 60.3548 55.1611 60.3805 55.2937 60.441C55.4263 60.5015 55.5412 60.5949 55.6277 60.7123C55.8214 61.0254 55.9135 61.3908 55.8913 61.7584C55.8913 62.7674 55.36 63.2534 54.2727 63.2534ZM44.8003 61.4907L44.5821 61.3218C44.4984 61.2535 44.4088 61.1929 44.3144 61.1406L44.0631 61.0047L43.989 60.9676C44.4536 60.6063 45.0129 60.3875 45.5993 60.3375C45.7207 60.3275 45.8429 60.3416 45.9589 60.3791C46.0748 60.4166 46.1821 60.4766 46.2747 60.5558C46.3489 60.6293 46.4069 60.7174 46.4452 60.8146C46.4835 60.9117 46.5012 61.0157 46.4971 61.12C46.4972 61.3424 46.4117 61.5562 46.2583 61.7172C46.0611 61.9187 45.8348 62.0894 45.587 62.2238L45.4593 62.0961C45.344 61.9808 45.2698 61.9108 45.2369 61.8819L45.0392 61.7007C44.9239 61.6019 44.8621 61.5319 44.7962 61.4907H44.8003Z" fill="white"/>
<path id="Vector_52" d="M61.0475 64.7114C60.9576 64.805 60.9075 64.9297 60.9075 65.0594C60.9075 65.1892 60.9576 65.3139 61.0475 65.4075C61.1408 65.4995 61.2665 65.5511 61.3976 65.5511C61.5286 65.5511 61.6544 65.4995 61.7476 65.4075C61.8363 65.3141 61.8857 65.1903 61.8857 65.0615C61.8857 64.9328 61.8363 64.8089 61.7476 64.7156C61.6549 64.623 61.5295 64.5706 61.3984 64.5698C61.2674 64.5691 61.1413 64.6199 61.0475 64.7114Z" fill="white"/>
<path id="Vector_53" d="M62.1593 64.7114C62.1133 64.7573 62.0768 64.8119 62.0521 64.872C62.0273 64.9321 62.0148 64.9965 62.0152 65.0615C62.0146 65.1259 62.0271 65.1897 62.0519 65.2492C62.0767 65.3086 62.1132 65.3625 62.1593 65.4074C62.2043 65.4532 62.2583 65.4892 62.3178 65.5133C62.3773 65.5374 62.4411 65.549 62.5052 65.5475C62.6339 65.5454 62.7567 65.4936 62.848 65.4031C62.9394 65.3125 62.9922 65.1901 62.9953 65.0615C62.9973 64.9957 62.9854 64.9302 62.9606 64.8692C62.9358 64.8082 62.8985 64.7531 62.8512 64.7073C62.7588 64.6163 62.6341 64.5656 62.5044 64.5664C62.3747 64.5672 62.2506 64.6193 62.1593 64.7114Z" fill="white"/>
<path id="Vector_54" d="M69.9145 59.1804C70.0133 59.1814 70.1101 59.1529 70.1925 59.0984C70.2749 59.0439 70.3391 58.966 70.3768 58.8747C70.4144 58.7834 70.4239 58.6829 70.4039 58.5861C70.3839 58.4894 70.3354 58.4008 70.2646 58.332C70.1708 58.2409 70.0452 58.1899 69.9145 58.1899C69.7838 58.1899 69.6582 58.2409 69.5644 58.332C69.5179 58.3766 69.4811 58.4304 69.4563 58.4899C69.4315 58.5495 69.4193 58.6134 69.4203 58.6779C69.4188 58.7446 69.4313 58.811 69.4568 58.8726C69.4823 58.9343 69.5204 58.99 69.5685 59.0362C69.6602 59.1282 69.7846 59.18 69.9145 59.1804Z" fill="white"/>
<path id="Vector_55" d="M69.9843 59.6827C69.6883 59.6665 69.3923 59.7144 69.1165 59.8232C68.8407 59.9319 68.5917 60.0989 68.3864 60.3128C68.0078 60.7349 67.8058 61.2863 67.8222 61.8531C67.7865 62.3628 67.9504 62.8664 68.2793 63.2575H66.3972V61.6101C66.4309 61.0899 66.2661 60.5762 65.9359 60.1728C65.7332 59.9919 65.4956 59.8545 65.2379 59.7688C64.9801 59.6831 64.7075 59.651 64.4368 59.6744C63.9505 59.6742 63.4657 59.7281 62.9913 59.8351L62.8883 59.8598V63.2451H62.2005C61.3398 63.2451 60.7385 63.0927 60.4255 62.7921C60.2524 62.5935 60.1213 62.362 60.0399 62.1115C59.9585 61.8609 59.9286 61.5966 59.9519 61.3342C59.9448 60.843 60.0594 60.3577 60.2854 59.9216L60.4049 59.6909L59.5029 59.8474L59.4741 59.9051C59.2563 60.3757 59.1492 60.8899 59.1611 61.4083C59.1332 61.7593 59.1829 62.1121 59.3068 62.4416C59.4306 62.7712 59.6256 63.0694 59.8777 63.3151C60.3472 63.727 61.1132 63.9288 62.1181 63.9288H63.6831V60.4158L64.0003 60.3828C64.6263 60.3087 65.0834 60.4116 65.3223 60.667C65.5462 60.9642 65.6505 61.3345 65.6147 61.7048V63.9329H71.8459V61.6389C71.8804 61.1115 71.7109 60.591 71.3723 60.1851C71.1888 60.0091 70.9706 59.8735 70.7315 59.7869C70.4925 59.7004 70.2379 59.6649 69.9843 59.6827ZM69.9226 60.3663C70.0745 60.3576 70.2266 60.3814 70.3686 60.4361C70.5106 60.4908 70.6394 60.5751 70.7463 60.6835C70.966 60.9997 71.068 61.383 71.0345 61.7666V63.2534H70.2109C69.7703 63.2961 69.3296 63.1727 68.9753 62.9074C68.8404 62.7585 68.7381 62.583 68.6749 62.3922C68.6118 62.2014 68.5893 61.9996 68.6088 61.7996C68.5898 61.4187 68.7131 61.0443 68.9547 60.7494C69.078 60.616 69.2298 60.5122 69.3988 60.4459C69.5679 60.3795 69.7497 60.3523 69.9308 60.3663H69.9226Z" fill="white"/>
<path id="Vector_56" d="M77.8093 65.3292L77.2739 65.3828C76.3843 65.4652 75.7625 65.3828 75.4042 65.1522C75.2903 65.0908 75.195 64.9999 75.1283 64.889C75.0617 64.7782 75.0261 64.6514 75.0253 64.522C75.0271 64.3997 75.0561 64.2793 75.1102 64.1696C75.1644 64.0599 75.2423 63.9636 75.3383 63.8878C75.6611 63.6137 76.0217 63.3876 76.4091 63.2165L77.8587 62.5122L77.5622 61.8945L77.1792 62.0922C76.9812 62.1893 76.7681 62.252 76.5491 62.2775C76.3518 62.3042 76.1511 62.2887 75.9601 62.2322C75.7915 62.1795 75.6461 62.0705 75.5483 61.9233C75.4299 61.7411 75.3709 61.5268 75.3795 61.3097C75.376 61.1758 75.4023 61.0428 75.4565 60.9203C75.5106 60.7979 75.5912 60.6889 75.6925 60.6013C75.921 60.4051 76.2151 60.3022 76.5161 60.313C76.7517 60.3152 76.9854 60.3555 77.208 60.4324L77.3481 60.4819L77.4798 59.7735L77.2533 59.7158L76.9362 59.6664C76.8106 59.6504 76.684 59.6421 76.5573 59.6417C76.0341 59.616 75.5202 59.7863 75.1159 60.1194C74.9418 60.274 74.8034 60.4645 74.7102 60.6779C74.6171 60.8912 74.5714 61.1222 74.5764 61.355C74.5672 61.5622 74.6038 61.7688 74.6835 61.9603C74.7632 62.1518 74.8841 62.3233 75.0376 62.4628C75.2161 62.6278 75.4303 62.749 75.6636 62.817C75.3199 62.9938 75.0001 63.2139 74.7123 63.4718C74.5595 63.6046 74.4368 63.7684 74.3523 63.9524C74.2678 64.1363 74.2234 64.3361 74.2222 64.5385C74.2217 64.7602 74.2773 64.9785 74.3839 65.1729C74.4905 65.3673 74.6445 65.5316 74.8317 65.6505C75.3616 65.9615 75.9732 66.105 76.5862 66.0623C77.0804 66.0592 77.5736 66.0151 78.0605 65.9305L78.2212 65.947L78.1676 65.2798L77.8093 65.3292Z" fill="white"/>
<path id="Vector_57" d="M83.9459 64.6826C83.8989 64.728 83.8616 64.7824 83.8361 64.8425C83.8106 64.9027 83.7975 64.9673 83.7976 65.0326C83.797 65.099 83.8103 65.1648 83.8365 65.2258C83.8627 65.2868 83.9014 65.3416 83.95 65.3868C84.0426 65.4769 84.1668 65.5272 84.296 65.5269C84.3616 65.5273 84.4266 65.5148 84.4874 65.4901C84.5482 65.4654 84.6035 65.4289 84.6501 65.3827C84.7437 65.2886 84.7962 65.1612 84.7962 65.0285C84.7962 64.8958 84.7437 64.7685 84.6501 64.6743C84.5541 64.585 84.4275 64.5361 84.2964 64.5376C84.1653 64.5392 84.0398 64.5911 83.9459 64.6826Z" fill="white"/>
<path id="Vector_58" d="M88.0727 56.6723C87.9223 56.5452 87.7298 56.4791 87.5331 56.487C87.3185 56.4813 87.1102 56.5596 86.9524 56.7052C86.875 56.7744 86.8136 56.8596 86.7723 56.9549C86.7311 57.0502 86.711 57.1533 86.7136 57.2571C86.7093 57.3174 86.7093 57.378 86.7136 57.4383L86.1082 57.5166V58.0602L87.389 57.8913C88.1138 57.8049 88.2662 57.4548 88.2662 57.1747C88.2709 57.0821 88.2561 56.9895 88.2227 56.903C88.1894 56.8164 88.1383 56.7378 88.0727 56.6723ZM87.3602 57.0841C87.3831 57.0623 87.4103 57.0456 87.4401 57.0349C87.4699 57.0243 87.5016 57.02 87.5331 57.0224C87.5806 57.0194 87.6275 57.0341 87.6649 57.0635C87.6782 57.0754 87.6888 57.09 87.6959 57.1064C87.703 57.1227 87.7065 57.1404 87.7061 57.1583C87.7061 57.2324 87.6814 57.2571 87.6567 57.2736C87.5601 57.3209 87.4552 57.3489 87.3478 57.356H87.3066C87.304 57.3244 87.304 57.2928 87.3066 57.2612C87.3011 57.1988 87.3203 57.1367 87.3602 57.0883V57.0841Z" fill="white"/>
<path id="Vector_59" d="M86.9772 58.5789C86.9307 58.6245 86.894 58.679 86.8693 58.7392C86.8445 58.7994 86.8322 58.8639 86.833 58.929C86.8308 58.9952 86.843 59.0611 86.8685 59.1222C86.8941 59.1834 86.9326 59.2382 86.9813 59.2832C87.0754 59.3735 87.2009 59.4237 87.3313 59.4232C87.3963 59.4236 87.4608 59.411 87.5209 59.3863C87.581 59.3615 87.6355 59.3251 87.6814 59.279C87.7281 59.2331 87.7652 59.1782 87.7905 59.1178C87.8158 59.0573 87.8288 58.9925 87.8288 58.9269C87.8288 58.8614 87.8158 58.7965 87.7905 58.7361C87.7652 58.6756 87.7281 58.6208 87.6814 58.5748C87.5859 58.485 87.4596 58.4353 87.3285 58.436C87.1974 58.4368 87.0716 58.488 86.9772 58.5789Z" fill="white"/>
<path id="Vector_60" d="M86.9401 63.2536H84.712V59.7694H83.9171V63.2578H82.2698C82.2897 62.4475 82.0628 61.6503 81.619 60.972C81.0926 60.3294 80.3807 59.8648 79.5804 59.6418L79.4569 59.6006L79.2386 60.2966L79.358 60.3378C80.0099 60.5087 80.5883 60.8875 81.0054 61.4168C81.3408 61.9711 81.5095 62.6102 81.4914 63.2578H78.6497V63.9414H87.7349V59.9465H86.9401V63.2536Z" fill="white"/>
<path id="Vector_61" d="M140.298 52.2861C140.296 52.3025 140.296 52.3192 140.298 52.3356L140.319 52.3767" fill="white"/>
<path id="Vector_62" d="M131.073 49.3086C131.073 49.5475 131.044 49.7904 131.02 50.0252L131.073 49.3086Z" fill="white"/>
<path id="Vector_63" d="M128.973 57.9653C128.907 58.1012 128.845 58.233 128.779 58.3772L128.973 57.9653Z" fill="white"/>
<path id="Vector_64" d="M174.91 51.166C176.495 52.061 178.214 52.6977 180 53.0523C180 53.0523 177.689 59.1228 177.455 59.2299C177.455 59.2299 172.789 57.8173 172.377 57.216C172.377 57.2325 173.74 52.7681 174.91 51.166Z" fill="white"/>
<path id="Vector_65" d="M157.032 63.3315C158.618 64.2265 160.336 64.8632 162.122 65.2178C162.122 65.2178 159.812 71.2883 159.577 71.3954C159.577 71.3954 154.911 69.9828 154.499 69.3856C154.499 69.4021 155.862 64.9336 157.032 63.3315Z" fill="white"/>
<path id="Vector_66" d="M143.811 19.1613C143.811 19.1613 144.635 15.0429 143.655 12.9837C142.675 10.9244 141.344 10.595 141.344 10.595C141.344 10.595 139.763 9.52418 140.492 7.19727C140.626 7.48021 140.82 7.7308 141.061 7.93194C141.301 8.13307 141.582 8.28003 141.884 8.36278C142.88 8.59341 147.036 12.683 143.811 19.1613Z" fill="white"/>
<path id="Vector_67" d="M151.348 41.2817C151.323 41.2806 151.299 41.2709 151.28 41.2541C151.26 41.2374 151.248 41.2146 151.243 41.1895C151.239 41.1645 151.243 41.1388 151.256 41.1166C151.268 41.0944 151.288 41.0771 151.311 41.0675C152.23 40.6104 155.808 39.0083 156.307 38.823C156.986 38.5841 159.19 36.875 160.425 35.2976C160.444 35.2762 160.468 35.2615 160.496 35.2557C160.524 35.2499 160.552 35.2533 160.578 35.2656C160.603 35.2778 160.624 35.2981 160.636 35.3232C160.649 35.3484 160.653 35.377 160.648 35.4047C160.125 37.091 159.099 38.5771 157.707 39.6631C157.456 39.8732 157.165 40.0288 156.85 40.1203C155.648 40.4745 152.353 41.4135 151.348 41.2817Z" fill="white"/>
<path id="Vector_68" d="M173.933 29.1033C173.752 28.8782 173.517 28.7019 173.25 28.5904C172.984 28.479 172.693 28.4358 172.406 28.4649C172.504 27.8069 172.504 27.1379 172.406 26.4799C172.331 26.2657 171.763 25.4091 171.508 25.5079C171.042 25.8806 170.611 26.2941 170.219 26.7434C169.659 27.4765 169.663 28.8026 169.683 29.2145C169.69 29.3134 169.729 29.4074 169.794 29.4822L170.173 29.894C170.236 29.9662 170.322 30.0142 170.416 30.0299L170.828 30.1164C170.853 30.2688 170.618 30.9978 168.794 33.2052C167.734 34.4967 166.484 35.6201 165.087 36.5371C165.07 36.5465 165.057 36.5614 165.049 36.5793C165.042 36.5973 165.041 36.6172 165.046 36.6359C165.215 37.3154 167.743 35.4251 168.715 34.7826C169.687 34.1401 170.61 32.6081 170.923 32.1015C171.236 31.5949 171.8 30.2565 171.8 30.2565C172.406 30.1691 173.021 30.3164 173.522 30.6683C174.049 30.4253 173.933 29.1033 173.933 29.1033ZM171.462 28.3455C171.215 28.3736 170.964 28.3338 170.738 28.2302C170.738 28.2302 171.071 27.5095 171.327 27.6289C171.582 27.7483 171.742 28.3455 171.45 28.3455H171.462Z" fill="white"/>
<path id="Vector_69" d="M133.285 32.2046C133.054 33.2836 132.832 34.3668 132.589 35.4417C132.463 36.0232 132.528 36.6296 132.774 37.1714C132.821 37.2712 132.887 37.3606 132.968 37.4344C133.05 37.5081 133.146 37.5647 133.25 37.6008C133.354 37.6369 133.464 37.6517 133.574 37.6445C133.684 37.6372 133.792 37.608 133.89 37.5585C134.079 37.4515 134.236 37.2867 134.421 37.1714C134.537 37.1203 134.659 37.083 134.784 37.0602C134.79 37.5748 134.669 38.083 134.429 38.5387C134.327 38.7352 134.205 38.9214 134.067 39.0947C133.935 39.2729 133.756 39.4113 133.551 39.4948C133.345 39.5783 133.121 39.6037 132.902 39.5683C132.685 39.515 132.487 39.4059 132.326 39.252C132.164 39.0981 132.046 38.9048 131.983 38.6911C131.575 36.5033 131.981 34.2419 133.124 32.3323C133.157 32.2828 133.26 32.2828 133.33 32.2581L133.285 32.2046Z" fill="white"/>
<path id="Vector_70" d="M139.236 19.1946C139.236 19.1946 139.236 19.1946 139.256 19.1616H139.211L139.236 19.1946Z" fill="white"/>
<path id="Vector_71" d="M161.673 15.2902C161.582 15.1468 161.458 15.0276 161.311 14.9428C161.164 14.8579 160.998 14.81 160.829 14.8031C160.659 14.7962 160.49 14.8306 160.337 14.9032C160.183 14.9759 160.05 15.0846 159.947 15.2202C159.559 15.6863 159.278 16.2318 159.124 16.8182C158.91 17.5966 158.741 18.3832 158.518 19.1574C158.464 19.3988 158.357 19.6252 158.205 19.8205C158.003 19.2563 157.728 18.4244 157.538 17.9219C157.317 17.2871 156.952 16.7121 156.471 16.2416C156.224 16.0227 155.946 15.8398 155.648 15.698C155.491 15.6339 155.318 15.6221 155.154 15.6644C154.99 15.7067 154.844 15.8008 154.738 15.9327C154.382 16.3998 154.104 16.9214 153.914 17.4771C152.991 18.3515 151.979 19.1272 150.895 19.7917C149.19 20.8625 147.473 21.9168 145.776 22.9999C145.516 23.1606 145.166 23.2429 145.051 23.5848C145.29 23.5921 145.529 23.5727 145.764 23.5271C146.278 23.3665 146.768 23.1153 147.283 22.9629C149.064 22.3209 150.722 21.3778 152.184 20.1747C152.987 19.5322 153.654 18.7354 154.145 17.8313C154.565 18.0444 155.019 18.1837 155.487 18.2432C155.756 18.2347 156.019 18.3171 156.235 18.4771C156.451 18.637 156.607 18.8651 156.677 19.1245C156.978 19.8699 157.262 20.6236 157.55 21.3732C157.631 21.7683 157.8 22.1401 158.045 22.4604C158.173 22.4402 158.291 22.3792 158.381 22.2864C158.472 22.1937 158.53 22.0741 158.547 21.9456C158.749 21.2373 158.914 20.5165 159.087 19.7999C159.26 19.0833 159.4 18.3544 159.61 17.646C159.73 17.3346 159.892 17.0409 160.092 16.7729C160.176 16.6666 160.297 16.5958 160.432 16.5744C160.566 16.5531 160.703 16.5827 160.816 16.6576C160.985 16.7646 161.125 16.9129 161.29 17.0282C161.342 17.0659 161.401 17.091 161.465 17.1016C161.528 17.1121 161.592 17.1078 161.653 17.0891C161.715 17.0703 161.771 17.0375 161.817 16.9933C161.863 16.9492 161.898 16.8949 161.92 16.8347C162.018 16.5782 162.047 16.3004 162.004 16.0293C161.961 15.7581 161.846 15.5032 161.673 15.2902Z" fill="white"/>
<path id="Vector_72" d="M116.111 64.9751C117.293 66.2312 118.401 67.4132 119.591 68.6817L123.083 64.9092L127.132 68.9988L123.104 72.7054L119.85 69.1512C118.466 70.502 117.28 71.6634 116.086 72.8248L112.194 68.9164L116.111 64.9751Z" fill="white"/>
<path id="Vector_73" d="M124.842 63.3975C124.34 63.7829 123.785 64.0937 123.195 64.32L123.446 63.4139H123.936C124.142 63.4181 124.455 63.4139 124.842 63.3975Z" fill="white"/>
<path id="Vector_74" d="M151.027 31.1955C150.928 31.6567 150.203 31.1296 150.104 31.0637C150.005 30.9978 148.943 30.3965 148.181 30.9442C147.931 31.1293 147.728 31.3705 147.588 31.6485C147.375 32.0643 147.272 32.5283 147.291 32.9952C147.337 34.7044 148.037 35.7051 148.358 37.6696C148.724 40.4864 148.805 43.3329 148.601 46.1659C148.464 47.9924 148.136 49.7993 147.621 51.557C147.31 52.576 146.919 53.5689 146.451 54.5264C146.07 55.3025 145.643 56.0549 145.17 56.7791C144.192 58.2093 143.027 59.5029 141.707 60.6257C139.746 62.3375 137.36 63.4886 134.8 63.9576C127.717 65.1437 124.031 64.1635 124.031 64.1635H124.055C126.608 63.8957 129.106 63.2489 131.468 62.2443H131.518C131.781 62.1372 132.041 62.026 132.292 61.9107L132.35 61.886C133.537 61.3522 134.679 60.7227 135.764 60.0039C135.822 59.9697 135.878 59.9326 135.933 59.8927L135.966 59.8721L136.139 59.7526L136.324 59.625L136.411 59.5632L136.485 59.5096L136.513 59.4891L136.575 59.4438C138.461 58.0534 140.117 56.3744 141.48 54.4687L141.991 53.7397C142.001 53.7183 142.015 53.6988 142.032 53.6821C142.81 52.5001 143.522 51.2765 144.166 50.0167C147.048 44.4774 146.558 37.7932 146.435 37.1713C146.373 36.8748 146.303 36.3476 146.241 35.9358C146.179 35.5239 146.134 35.1409 146.068 34.7414C145.878 33.5496 145.757 32.3478 145.706 31.1419C145.706 31.1419 145.199 27.5301 146.394 25.5779C147.114 24.4042 147.917 24.2765 148.626 24.5524C148.958 24.6891 149.263 24.8829 149.528 25.1249C149.643 25.2237 149.754 25.3308 149.857 25.4379C150.701 26.3192 151.027 29.8446 151.027 29.8446C151.081 30.2933 151.081 30.7468 151.027 31.1955Z" fill="white"/>
<path id="Vector_75" d="M128.812 63.1998C129.735 62.9156 130.612 62.6068 131.431 62.269C129.07 63.2736 126.571 63.9205 124.018 64.1882C125.641 63.9943 127.245 63.6636 128.812 63.1998Z" fill="white"/>
<path id="Vector_76" d="M145.162 56.7959C144.824 57.3148 144.448 57.8392 144.034 58.3691C144.014 58.3959 143.992 58.4207 143.968 58.4433C143.955 58.4642 143.94 58.4835 143.922 58.5009C143.905 58.5221 143.886 58.5415 143.865 58.5586C143.848 58.5847 143.827 58.6083 143.803 58.6286C143.782 58.6566 143.758 58.6827 143.733 58.7068C143.714 58.7366 143.691 58.7631 143.663 58.7851C143.639 58.8145 143.613 58.8421 143.585 58.8675C143.018 59.5189 142.387 60.1122 141.703 60.6384C143.021 59.5165 144.184 58.2244 145.162 56.7959Z" fill="white"/>
<path id="Vector_77" d="M142.638 48.1553C141.534 45.1776 140.579 38.271 140.5 37.5174C140.41 36.669 138.939 23.5477 138.886 20.6771C138.832 17.8066 137.238 12.3744 136.374 11.3365C135.509 10.2987 133.058 9.21142 133.058 9.21142C133.47 8.2683 134.195 2.56428 131.629 0.974566C130.991 0.555711 130.238 0.344272 129.475 0.369157C129.286 0.669802 129.1 0.982802 128.944 1.28757C128.428 2.22069 128.178 3.27796 128.223 4.34344C128.446 8.46187 131.061 9.83742 131.061 9.83742C131.061 11.5383 127.696 15.6897 125.892 17.057C124.088 18.4243 119.715 23.0946 117.783 25.265C114.752 28.6092 112.358 32.4797 110.72 36.6854C108.661 42.0394 109.007 47.4345 108.986 48.5177C108.965 49.6008 109.295 53.0727 110.881 57.2941C111.414 58.6993 112.152 60.0178 113.072 61.2066C113.904 62.345 114.936 63.322 116.119 64.0895L116.251 64.1677C117.083 64.5896 117.993 64.8363 118.924 64.8926C119.039 64.8926 119.154 64.8926 119.274 64.9131H119.529H119.871C120.997 64.9176 122.113 64.7152 123.166 64.316C123.483 64.2023 123.792 64.0647 124.088 63.9041C124.346 63.7566 124.593 63.5929 124.83 63.414C125.149 63.1664 125.445 62.8908 125.715 62.5904C125.818 62.4874 125.938 62.3721 126.049 62.2526L126.292 61.9973C126.307 61.9747 126.325 61.954 126.345 61.9355C126.584 61.6678 126.839 61.3713 127.091 61.0377L127.26 60.8153C127.313 60.7494 127.367 60.6712 127.424 60.5929C127.643 60.284 127.865 59.9504 128.087 59.588C128.12 59.5262 128.17 59.4604 128.203 59.3903C128.396 59.0691 128.586 58.7314 128.763 58.3648L128.808 58.2784C128.829 58.2413 128.845 58.2042 128.862 58.1713C128.878 58.1383 128.927 58.0395 128.956 57.9736C129.32 57.2116 129.633 56.426 129.891 55.622C129.937 55.4943 129.986 55.3584 130.023 55.2101C130.06 55.0619 130.089 54.9877 130.126 54.8724C130.163 54.7571 130.208 54.58 130.241 54.4276C130.254 54.4125 130.261 54.3937 130.262 54.3741C130.291 54.2711 130.32 54.1641 130.344 54.0529C130.369 53.9417 130.406 53.8016 130.431 53.6698C130.455 53.5381 130.517 53.2951 130.558 53.1097C130.6 52.9244 130.637 52.6979 130.682 52.492C130.682 52.4014 130.711 52.3066 130.723 52.2078C130.748 52.1161 130.764 52.0224 130.773 51.9277C130.805 51.7259 130.838 51.5159 130.859 51.31C130.884 51.17 130.9 51.0217 130.917 50.8775C130.917 50.8322 130.917 50.7911 130.917 50.7458C130.917 50.7005 130.917 50.6346 130.917 50.5728C130.937 50.3916 130.958 50.2104 130.966 50.0209C130.966 49.9756 130.966 49.9303 130.966 49.885L130.999 49.4361C130.999 49.3949 130.999 49.3496 130.999 49.3043C130.999 49.0984 131.028 48.8925 131.036 48.6742C131.036 48.6371 131.036 48.6001 131.036 48.5671C131.034 48.5452 131.034 48.5231 131.036 48.5012C131.036 48.32 131.036 48.1264 131.036 47.9411C131.036 47.8217 131.036 47.7022 131.036 47.5787V47.2039C131.036 46.5367 131.036 45.8489 130.974 45.1241C130.974 45.1241 130.822 40.1202 124.718 40.5362C118.615 40.9521 120.258 36.1006 120.258 36.1006C121.141 34.0355 122.546 32.2357 124.335 30.8785C124.851 30.4748 125.481 30.2454 126.135 30.2236C126.216 30.2195 126.297 30.2195 126.378 30.2236H126.419C126.486 30.2324 126.552 30.2447 126.617 30.2607L126.811 30.306C126.893 30.3389 126.975 30.3637 127.058 30.4007C127.129 30.4287 127.197 30.4617 127.264 30.4996C127.522 30.6371 127.761 30.8074 127.976 31.0061L128.12 31.1503C128.192 31.2179 128.258 31.2909 128.318 31.3686C128.442 31.5127 128.544 31.6486 128.631 31.7804C128.717 31.9122 128.709 31.8998 128.738 31.9451C128.767 31.9904 128.738 31.9451 128.763 31.974C128.787 32.0028 128.763 31.974 128.792 31.9946C128.81 31.9994 128.83 31.9994 128.849 31.9946C128.86 31.998 128.871 31.998 128.882 31.9946C128.888 31.9982 128.896 32.0001 128.903 32.0001C128.91 32.0001 128.917 31.9982 128.923 31.9946C128.923 31.9946 128.923 31.9946 128.944 31.9698L128.969 31.9287C129.232 30.8826 130.114 27.2872 129.866 25.7098C129.582 23.8565 126.358 23.1935 124.681 24.5773C123.005 25.9611 119.327 29.8694 118.648 35.1781C117.968 40.4868 117.758 44.531 120.077 46.1784C122.396 47.8258 125.703 47.2492 125.703 47.2492C125.703 47.2492 128.458 47.278 128.808 49.5473C129.158 51.8165 124.545 56.4868 123.269 57.0964C122.301 57.5576 117.454 59.6704 113.796 54.3247C110.139 48.979 111.49 41.4381 111.49 41.4381C111.49 41.4381 112.894 33.7408 116.523 29.2929C120.151 24.845 125.995 18.865 128.141 17.0735C130.287 15.282 132.408 11.2706 132.552 10.8011C132.552 10.8011 134.442 11.0853 136.201 13.2022C136.201 13.2022 135.871 17.8313 135.579 18.585C135.579 18.585 136.345 19.6681 136.678 22.9711C137.012 26.2741 137.799 33.9796 137.799 36.809C137.799 36.9861 137.799 37.2208 137.799 37.4391C137.799 37.5297 137.819 37.6245 137.823 37.7192C137.823 37.9869 137.856 38.2752 137.885 38.5882C137.885 38.7076 137.906 38.8435 137.922 38.9712C137.939 39.0988 137.922 39.1277 137.943 39.2059C137.963 39.2842 137.943 39.3665 137.972 39.4489C137.972 39.6384 138.009 39.8608 138.033 40.0461C138.033 40.1408 138.033 40.2355 138.062 40.3261C138.091 40.4167 138.062 40.4291 138.062 40.4744C138.083 40.6185 138.095 40.7668 138.112 40.9151L138.161 41.294C138.161 41.4628 138.202 41.6276 138.227 41.8047C138.252 41.9817 138.28 42.2494 138.309 42.4718C138.338 42.6942 138.367 42.8837 138.396 43.1184C138.425 43.3532 138.474 43.6621 138.515 43.9421C138.544 44.1398 138.577 44.354 138.606 44.5434C138.606 44.6587 138.639 44.774 138.659 44.8894C138.68 45.0047 138.717 45.2312 138.738 45.4042C138.795 45.7666 138.857 46.1249 138.919 46.4791C138.944 46.6356 138.972 46.7838 138.997 46.9321C139.067 47.3439 139.133 47.7022 139.207 48.0729C139.236 48.2212 139.269 48.3694 139.294 48.5095C139.454 49.3331 139.619 50.058 139.788 50.6963C139.803 50.7744 139.824 50.8515 139.85 50.927C139.87 51.0217 139.903 51.1123 139.924 51.1988C139.944 51.2853 139.977 51.3882 140.002 51.4747C140.002 51.4747 140.002 51.4747 140.002 51.4953C140.079 51.7612 140.171 52.0225 140.278 52.2778C140.438 52.8101 140.625 53.3338 140.838 53.8469C141.707 52.9079 143.358 50.0621 143.408 49.9674L143.354 49.8438C142.938 48.8801 142.638 48.1553 142.638 48.1553ZM132.144 6.30381C132.144 6.40265 132.144 6.50561 132.115 6.60857C132.086 6.71153 132.074 6.93393 132.045 7.09867C132.016 7.2634 132 7.32106 131.975 7.43226C131.923 7.6574 131.857 7.88803 131.777 8.12415C131.736 8.24359 131.695 8.36302 131.65 8.48246C131.522 8.36741 131.401 8.24503 131.287 8.11592C131.259 8.08709 131.234 8.05414 131.205 8.02119C131.081 7.88529 130.946 7.71643 130.793 7.52698C130.038 6.56965 129.605 5.39738 129.558 4.1787V4.04691C129.556 4.014 129.556 3.98098 129.558 3.94807V3.89865C129.558 3.89865 129.558 3.8657 129.558 3.84923V3.68861C129.585 3.46184 129.634 3.23834 129.706 3.02142C129.706 2.972 129.739 2.92258 129.759 2.87316C129.766 2.85323 129.774 2.83393 129.784 2.8155C129.835 2.70198 129.896 2.59311 129.965 2.49015C130.02 2.41248 130.079 2.33821 130.142 2.26775C130.396 2.32587 130.64 2.41873 130.867 2.54369L131.057 2.65077L131.098 2.67548L131.135 2.7043L131.164 2.7249H131.197L131.221 2.74549L131.246 2.7702C131.354 2.8954 131.445 3.03379 131.518 3.18204C131.642 3.41645 131.744 3.66186 131.823 3.91512C131.887 4.11218 131.939 4.31298 131.979 4.51641C132 4.60702 132.016 4.69762 132.033 4.78823C132.049 4.87883 132.033 4.88295 132.053 4.93237C132.133 5.38496 132.163 5.84474 132.144 6.30381ZM176.705 37.4844C173.715 40.1243 171.706 39.4448 170.89 38.9382C170.337 38.5854 169.738 38.3084 169.111 38.1145C165.553 37.0726 164.358 39.21 164.358 39.21C161.274 44.0698 163.535 53.0809 163.535 53.0809C158.951 57.7677 155.664 58.0807 155.664 58.0807C156.233 56.9481 155.664 52.4178 155.664 51.6642C155.664 50.9105 154.589 50.2804 154.589 51.7877C154.589 53.2951 152.818 55.2513 152.818 55.2513C150.265 56.9769 148.247 56.3345 146.974 55.4325C146.816 55.8628 146.631 56.2823 146.418 56.6887C145.762 57.8295 145.009 58.9112 144.166 59.9216C144.413 60.2017 144.845 60.6135 145.15 60.8936C146.074 61.8057 147.204 62.4823 148.445 62.8663C151.809 63.7847 154.54 60.91 154.54 60.91C155.195 60.9636 157.724 60.6794 158.741 60.5641C159.029 60.5311 159.317 60.5147 159.61 60.5064C162.937 60.387 164.614 58.5049 164.614 58.5049C164.997 59.8928 167.414 65.4815 167.414 65.4815C168.151 65.8398 168.151 65.0696 168.151 65.0696C167.06 62.7592 166.183 56.7916 166.183 56.7916C166.965 56.4127 168.242 53.9375 170.973 49.8603C173.567 45.9725 176.903 43.9998 177.076 43.4809C177.249 42.9619 177.772 37.4927 177.772 37.4927C177.393 36.7555 176.705 37.4844 176.705 37.4844ZM169.346 45.4948C169.335 45.5217 169.323 45.5478 169.309 45.573L169.276 45.6142L169.239 45.6595C169.202 45.6972 169.164 45.7329 169.123 45.7666L169.099 45.7913L169.066 45.8242C168.96 45.9333 168.865 46.0519 168.782 46.1784C168.761 46.2155 168.736 46.2443 168.712 46.2814L168.629 46.4049C168.611 46.437 168.591 46.4673 168.567 46.4955L168.382 46.7962C168.364 46.8213 168.348 46.8474 168.333 46.8744C168.267 46.9815 168.193 47.0968 168.127 47.2121C168.061 47.3275 168.053 47.3357 168.015 47.3934C167.978 47.451 167.937 47.5169 167.9 47.5787C167.863 47.6405 167.785 47.7681 167.719 47.8629L167.538 48.1594L167.274 48.5712C167.221 48.6536 167.167 48.736 167.109 48.8142C167.101 48.8325 167.09 48.8492 167.076 48.8636L167.006 48.9666C166.978 49.016 166.945 49.0572 166.916 49.1025L166.772 49.3002L166.603 49.5349C166.537 49.6214 166.475 49.7038 166.409 49.782C166.343 49.8603 166.306 49.9221 166.253 49.988L166.092 50.1815L165.927 50.3751L165.87 50.441L165.808 50.511L165.746 50.5769C165.635 50.6963 165.528 50.8116 165.413 50.9187L165.24 51.0917C165.24 51.0917 165.166 50.7622 165.075 50.268C165.075 50.2227 165.075 50.1692 165.05 50.1198C165.021 49.9427 164.993 49.7409 164.964 49.5267C164.964 49.4402 164.939 49.3414 164.927 49.2466C164.914 49.1519 164.902 49.0366 164.894 48.9295C164.885 48.8224 164.873 48.7236 164.865 48.6165C164.865 48.6165 164.865 48.5795 164.865 48.5589C164.865 48.4477 164.865 48.3324 164.865 48.217C164.865 48.1017 164.865 47.9741 164.865 47.8546C164.865 47.7352 164.865 47.5293 164.865 47.3645V47.2492C164.865 47.208 164.865 47.171 164.865 47.138C164.863 47.0996 164.863 47.0611 164.865 47.0227C164.863 46.9898 164.863 46.9568 164.865 46.9239C164.865 46.8786 164.865 46.8374 164.865 46.8003C164.865 46.7632 164.865 46.7179 164.865 46.6809C164.865 46.6438 164.865 46.5655 164.89 46.5038C164.914 46.442 164.89 46.4132 164.89 46.3679C164.89 46.3226 164.89 46.269 164.91 46.2237C164.931 46.1784 164.91 46.1208 164.943 46.0755C164.976 46.0302 164.964 45.989 164.972 45.9478C165.003 45.8373 165.04 45.7287 165.083 45.6224C165.09 45.5994 165.1 45.5773 165.112 45.5565C165.114 45.5373 165.121 45.5189 165.133 45.503L165.194 45.3918C165.199 45.3738 165.208 45.357 165.219 45.3424L165.277 45.2518L165.297 45.2229C165.314 45.2 165.332 45.178 165.351 45.1571C165.371 45.1295 165.395 45.1046 165.421 45.0829C165.454 45.0334 165.491 44.9866 165.532 44.9429L165.594 44.8976C165.622 44.8809 165.651 44.8658 165.68 44.8523C165.691 44.8501 165.702 44.8501 165.713 44.8523H165.759C165.825 44.8351 165.892 44.8227 165.96 44.8152H166.067H166.203H166.809H166.961H167.126H167.262L167.542 44.8482L167.863 44.9058C167.97 44.9305 168.081 44.9511 168.197 44.9841L168.366 45.0211L168.547 45.0706H168.567C168.621 45.0706 168.67 45.1076 168.724 45.12L168.913 45.1776H168.934C168.959 45.1754 168.983 45.1754 169.008 45.1776H169.045H169.078H169.119H169.156C169.18 45.1866 169.202 45.1991 169.222 45.2147C169.235 45.2209 169.246 45.2293 169.255 45.2394C169.279 45.2485 169.301 45.2627 169.319 45.2811C169.337 45.2995 169.351 45.3217 169.36 45.346C169.368 45.3703 169.372 45.3962 169.369 45.4219C169.367 45.4476 169.359 45.4725 169.346 45.4948Z" fill="white"/>
<path id="Vector_78" d="M163.16 50.8447C162.685 52.6282 161.895 54.3119 160.825 55.8157C161.279 55.127 161.691 54.4118 162.06 53.6741C162.5 52.7613 162.868 51.8152 163.16 50.8447Z" fill="white"/>
</g>
</svg>
